<svg xmlns="http://www.w3.org/2000/svg" viewBox="0 0 512 512" width="512" height="512">
  <rect width="512" height="512" rx="96" fill="#0f1a2b"/>
  <g>
    <rect x="0" y="0" width="64" height="40" fill="#ffc82e"/><rect x="64" y="0" width="64" height="40" fill="#111"/>
    <rect x="128" y="0" width="64" height="40" fill="#ffc82e"/><rect x="192" y="0" width="64" height="40" fill="#111"/>
    <rect x="256" y="0" width="64" height="40" fill="#ffc82e"/><rect x="320" y="0" width="64" height="40" fill="#111"/>
    <rect x="384" y="0" width="64" height="40" fill="#ffc82e"/><rect x="448" y="0" width="64" height="40" fill="#111"/>
  </g>
  <rect width="512" height="512" rx="96" fill="none" stroke="#0f1a2b" stroke-width="0"/>
  <!-- casco -->
  <path d="M116 300 a140 140 0 0 1 280 0 z" fill="#ffc82e"/>
  <rect x="96" y="296" width="320" height="34" rx="12" fill="#ffc82e"/>
  <rect x="236" y="180" width="40" height="110" rx="10" fill="#f58220"/>
  <path d="M150 300 a110 110 0 0 1 60 -100" stroke="#fff" stroke-opacity="0.35" stroke-width="18" fill="none" stroke-linecap="round"/>
  <text x="256" y="430" font-family="Arial, Helvetica, sans-serif" font-weight="bold" font-size="92" text-anchor="middle" fill="#f58220">SAFETOP</text>
</svg>
